<?xml version="1.0" standalone="no"?>
 <!DOCTYPE svg PUBLIC "-//W3C//DTD SVG 1.1//EN" 
 "http://www.w3.org/Graphics/SVG/1.1/DTD/svg11.dtd"> 
<svg
  xmlns:svg="http://www.w3.org/2000/svg"
  xmlns="http://www.w3.org/2000/svg"
  xmlns:xlink="http://www.w3.org/1999/xlink"
  version="1.1"
  width="259.1562mm" height="185.3438mm" viewBox="0.0000 0.0000 259.1562 185.3438">
<title>SVG Image created as Pico40-Edge_Cuts.svg date 2024/01/14 17:56:38 </title>
  <desc>Image generated by PCBNEW </desc>
<g style="fill:#000000; fill-opacity:1.0000;stroke:#000000; stroke-opacity:1.0000;
stroke-linecap:round; stroke-linejoin:round;"
 transform="translate(0 0) scale(1 1)">
</g>
<g style="fill:#000000; fill-opacity:0.0; 
stroke:#000000; stroke-width:0.0000; stroke-opacity:1; 
stroke-linecap:round; stroke-linejoin:round;">
</g>
<g style="fill:#000000; fill-opacity:0.0; 
stroke:#000000; stroke-width:0.1890; stroke-opacity:1; 
stroke-linecap:round; stroke-linejoin:round;">
<path d="M163.1205 141.6893
L163.1205 155.6893
" />
<path d="M148.8325 117.5893
L162.8325 117.5893
" />
<path d="M258.9455 181.4323
L258.8385 181.8103
" />
<path d="M196.1705 141.6893
L182.1705 141.6893
" />
<path d="M0.0945 87.2955
L0.0955 5.0955
" />
<path d="M77.9885 162.2093
L76.2635 162.2093
" />
<path d="M254.0825 93.0643
L254.4745 93.0793
" />
<path d="M76.2635 174.5093
L77.9885 174.5093
" />
<path d="M83.0135 162.2093
L81.2885 162.2093
" />
<path d="M258.2465 89.9085
L258.0285 90.2345
" />
<path d="M0.3395 3.5495
L0.4755 3.1815
" />
</g>
<g style="fill:#000000; fill-opacity:0.0; 
stroke:#000000; stroke-width:0.1000; stroke-opacity:1; 
stroke-linecap:round; stroke-linejoin:round;">
<circle cx="4.6664" cy="88.0102" r="1.0000" /> 
</g>
<g style="fill:#000000; fill-opacity:0.0; 
stroke:#000000; stroke-width:0.1890; stroke-opacity:1; 
stroke-linecap:round; stroke-linejoin:round;">
<path d="M183.0135 168.2393
L183.8385 168.2393
" />
<path d="M258.1285 95.1253
L258.3465 95.4513
" />
<path d="M244.7065 133.6633
L245.6265 133.6633
" />
<path d="M163.1205 155.6893
L177.1205 155.6893
" />
<path d="M124.7325 103.5883
L110.7325 103.5883
" />
<path d="M24.7205 141.6893
L10.7195 141.6893
" />
<path d="M2.2565 184.3103
L1.9475 184.0673
" />
<path d="M244.7065 135.3883
L244.7065 133.6633
" />
<path d="M186.6455 136.6383
L186.6455 122.6383
" />
<path d="M77.3955 122.6383
L77.3955 136.6383
" />
<path d="M232.4065 133.6633
L232.4065 135.3883
" />
<path d="M246.1765 127.1143
L246.1765 113.1133
" />
<path d="M119.9695 141.6893
L105.9695 141.6893
" />
<path d="M227.4135 155.6893
L241.4135 155.6893
" />
<path d="M136.6385 174.7393
L136.6385 170.0393
" />
<path d="M232.4065 104.8393
L232.4065 106.5633
" />
<path d="M86.6325 117.5893
L86.6325 103.5883
" />
<path d="M0.5755 96.1503
L0.7395 95.7943
" />
<path d="M210.7455 136.6383
L224.7455 136.6383
" />
<path d="M259.0215 97.2813
L259.0685 97.6713
" />
<path d="M4.4125 93.1253
L4.8025 93.0793
" />
<path d="M39.2955 136.6383
L53.2955 136.6383
" />
<path d="M232.4065 104.8393
L232.4065 106.5633
" />
<path d="M58.3455 136.6383
L72.3455 136.6383
" />
<path d="M205.6955 160.7393
L191.6955 160.7393
" />
<path d="M181.2885 174.5093
L183.0135 174.5093
" />
<path d="M158.0705 141.6893
L144.0705 141.6893
" />
<path d="M48.5325 160.7393
L34.5325 160.7393
" />
</g>
<g style="fill:#000000; fill-opacity:0.0; 
stroke:#000000; stroke-width:0.1000; stroke-opacity:1; 
stroke-linecap:round; stroke-linejoin:round;">
<circle cx="217.7445" cy="120.1133" r="1.0000" /> 
</g>
<g style="fill:#000000; fill-opacity:0.0; 
stroke:#000000; stroke-width:0.1890; stroke-opacity:1; 
stroke-linecap:round; stroke-linejoin:round;">
<path d="M83.0135 170.0393
L122.6385 170.0393
" />
<path d="M58.3455 122.6383
L58.3455 136.6383
" />
<path d="M186.6455 122.6383
L172.6455 122.6383
" />
<path d="M72.3455 122.6383
L58.3455 122.6383
" />
<path d="M181.2885 162.2093
L181.2885 161.2893
" />
<path d="M139.0205 155.6893
L139.0205 141.6893
" />
<path d="M215.2205 141.6893
L201.2205 141.6893
" />
<path d="M196.1705 141.6893
L182.1705 141.6893
" />
<path d="M258.1285 183.2033
L257.8855 183.5123
" />
<path d="M0.2105 97.6713
L0.2565 97.2813
" />
<path d="M5.1955 185.2653
L4.8025 185.2493
" />
<path d="M258.7025 96.1503
L258.8385 96.5183
" />
<path d="M81.2885 162.2093
L81.2885 161.2893
" />
<path d="M34.5325 174.7393
L48.5325 174.7393
" />
<path d="M53.5825 117.5893
L67.5825 117.5893
" />
<path d="M210.7455 122.6383
L210.7455 136.6383
" />
<path d="M183.0135 162.2093
L181.2885 162.2093
" />
<path d="M258.2465 2.4825
L258.4385 2.8255
" />
<path d="M259.0215 181.0473
L258.9455 181.4323
" />
<path d="M76.2635 165.4393
L75.4385 165.4393
" />
<path d="M3.2815 93.4443
L3.6495 93.3083
" />
<path d="M0.2335 88.4635
L0.1565 88.0785
" />
<path d="M10.7195 103.5883
L10.7195 117.5893
" />
<path d="M105.9695 141.6893
L105.9695 155.6893
" />
<path d="M210.7455 174.7393
L224.7455 174.7393
" />
<path d="M39.2955 122.6383
L39.2955 136.6383
" />
<path d="M257.8855 94.8163
L258.1285 95.1253
" />
<path d="M236.8765 127.1143
L236.8765 128.6383
" />
<path d="M196.1705 155.6893
L196.1705 141.6893
" />
<path d="M2.8255 91.7515
L2.4825 91.5595
" />
<path d="M105.6825 117.5893
L105.6825 103.5883
" />
<path d="M231.4265 106.5633
L231.4265 109.8633
" />
<path d="M136.6385 165.4393
L136.6385 160.7393
" />
<path d="M176.2635 174.5093
L177.9885 174.5093
" />
<path d="M81.2885 174.5093
L83.0135 174.5093
" />
<path d="M96.4455 122.6383
L96.4455 136.6383
" />
</g>
<g style="fill:#000000; fill-opacity:0.0; 
stroke:#000000; stroke-width:0.1000; stroke-opacity:1; 
stroke-linecap:round; stroke-linejoin:round;">
<circle cx="4.6664" cy="4.6664" r="1.0000" /> 
<circle cx="129.6821" cy="180.8790" r="1.0000" /> 
</g>
<g style="fill:#000000; fill-opacity:0.0; 
stroke:#000000; stroke-width:0.1890; stroke-opacity:1; 
stroke-linecap:round; stroke-linejoin:round;">
<path d="M244.7065 111.5893
L244.7065 109.8633
" />
<path d="M86.6325 117.5893
L86.6325 103.5883
" />
<path d="M83.0135 162.2093
L81.2885 162.2093
" />
<path d="M3.1815 0.4755
L3.5495 0.3395
" />
<path d="M129.7825 117.5893
L143.7825 117.5893
" />
<path d="M258.0285 2.1565
L258.2465 2.4825
" />
<path d="M245.6265 130.3643
L244.7065 130.3643
" />
<path d="M67.5825 160.7393
L53.5825 160.7393
" />
<path d="M255.1505 92.1575
L254.7655 92.2345
" />
<path d="M215.2205 141.6893
L201.2205 141.6893
" />
<path d="M258.3465 182.8773
L258.1285 183.2033
" />
<path d="M200.9325 103.5883
L186.9325 103.5883
" />
<path d="M77.9885 175.4893
L81.2885 175.4893
" />
<path d="M0.7395 95.7943
L0.9315 95.4513
" />
<path d="M224.7455 122.6383
L210.7455 122.6383
" />
<path d="M72.3455 136.6383
L72.3455 122.6383
" />
<path d="M259.0215 181.0473
L258.9455 181.4323
" />
<path d="M254.4745 185.2493
L254.0825 185.2653
" />
<path d="M176.2635 174.5093
L177.9885 174.5093
" />
<path d="M15.4825 136.6383
L29.4825 136.6383
" />
<path d="M181.2885 175.4893
L181.2885 174.5093
" />
<path d="M258.7025 182.1783
L258.5385 182.5343
" />
<path d="M105.6825 103.5883
L91.6825 103.5883
" />
<path d="M48.5325 160.7393
L34.5325 160.7393
" />
<path d="M256.3535 93.6083
L256.6955 93.8003
" />
<path d="M224.7455 122.6383
L210.7455 122.6383
" />
<path d="M219.9825 103.5883
L205.9825 103.5883
" />
<path d="M143.7825 103.5883
L129.7825 103.5883
" />
<path d="M1.1495 95.1253
L1.3925 94.8163
" />
<path d="M210.7455 160.7393
L210.7455 174.7393
" />
<path d="M158.0705 155.6893
L158.0705 141.6893
" />
<path d="M1.3925 94.8163
L1.6595 94.5283
" />
<path d="M4.8025 93.0793
L5.1955 93.0633
" />
<path d="M58.3455 122.6383
L58.3455 136.6383
" />
<path d="M257.7855 1.8475
L258.0285 2.1565
" />
<path d="M167.5955 136.6383
L167.5955 122.6383
" />
<path d="M3.6495 93.3083
L4.0275 93.2023
" />
<path d="M72.6325 103.5883
L72.6325 117.5893
" />
<path d="M24.7205 155.6893
L24.7205 141.6893
" />
<path d="M224.7455 174.7393
L224.7455 160.7393
" />
<path d="M241.4765 127.1143
L246.1765 127.1143
" />
<path d="M253.9835 0.0955
L254.3755 0.1105
" />
<path d="M258.1285 183.2033
L257.8855 183.5123
" />
<path d="M0.1105 4.7025
L0.1565 4.3125
" />
<path d="M67.8705 155.6893
L81.8705 155.6893
" />
<path d="M0.2565 97.2813
L0.3335 96.8963
" />
<path d="M241.4765 128.6383
L241.4765 127.1143
" />
</g>
<g style="fill:#000000; fill-opacity:0.0; 
stroke:#000000; stroke-width:0.1000; stroke-opacity:1; 
stroke-linecap:round; stroke-linejoin:round;">
<circle cx="254.6978" cy="97.5352" r="1.0000" /> 
</g>
<g style="fill:#000000; fill-opacity:0.0; 
stroke:#000000; stroke-width:0.1890; stroke-opacity:1; 
stroke-linecap:round; stroke-linejoin:round;">
<path d="M105.6825 103.5883
L91.6825 103.5883
" />
<path d="M144.0705 155.6893
L158.0705 155.6893
" />
<path d="M105.9695 141.6893
L105.9695 155.6893
" />
<path d="M134.5455 136.6383
L148.5455 136.6383
" />
<path d="M181.2885 175.4893
L181.2885 174.5093
" />
<path d="M2.2565 184.3103
L1.9475 184.0673
" />
<path d="M238.6765 104.0133
L238.6765 104.8393
" />
<path d="M241.4765 135.3883
L244.7065 135.3883
" />
<path d="M2.9255 93.6083
L3.2815 93.4443
" />
<path d="M129.4955 122.6383
L115.4955 122.6383
" />
<path d="M0.2565 181.0473
L0.2105 180.6573
" />
<path d="M1.6595 183.8003
L1.3925 183.5123
" />
<path d="M129.7825 103.5883
L129.7825 117.5893
" />
<path d="M255.2505 93.2023
L255.6285 93.3083
" />
<path d="M200.9325 117.5893
L200.9325 103.5883
" />
<path d="M34.5325 103.5883
L34.5325 117.5893
" />
<path d="M254.0825 185.2653
L5.1955 185.2653
" />
<path d="M231.4265 133.6633
L232.4065 133.6633
" />
<path d="M0.2335 3.9275
L0.3395 3.5495
" />
<path d="M182.1705 141.6893
L182.1705 155.6893
" />
<path d="M236.8765 113.1133
L232.1765 113.1133
" />
<path d="M105.9695 155.6893
L119.9695 155.6893
" />
<path d="M153.5955 136.6383
L167.5955 136.6383
" />
<path d="M76.2635 174.5093
L77.9885 174.5093
" />
<path d="M0.1945 180.2643
L0.1955 98.0643
" />
<path d="M232.4065 135.3883
L238.6765 135.3883
" />
<path d="M256.6955 184.5283
L256.3535 184.7203
" />
<path d="M162.8325 103.5883
L148.8325 103.5883
" />
<path d="M144.0705 155.6893
L158.0705 155.6893
" />
<path d="M13.1015 174.7393
L27.1015 174.7393
" />
<path d="M258.8455 88.4635
L258.7385 88.8415
" />
<path d="M148.5455 136.6383
L148.5455 122.6383
" />
<path d="M75.4385 168.2393
L76.2635 168.2393
" />
<path d="M1.6595 183.8003
L1.3925 183.5123
" />
<path d="M2.1565 1.0495
L2.4825 0.8315
" />
<path d="M224.7455 160.7393
L210.7455 160.7393
" />
<path d="M241.4765 111.5893
L244.7065 111.5893
" />
<path d="M255.6285 185.0203
L255.2505 185.1263
" />
<path d="M122.6385 170.0393
L122.6385 174.7393
" />
<path d="M48.5325 117.5893
L48.5325 103.5883
" />
<path d="M0.0955 5.0955
L0.1105 4.7025
" />
<path d="M67.5825 117.5893
L67.5825 103.5883
" />
<path d="M177.9885 162.2093
L176.2635 162.2093
" />
<path d="M91.3955 122.6383
L77.3955 122.6383
" />
<path d="M3.5495 92.0515
L3.1815 91.9155
" />
<path d="M122.6385 174.7393
L136.6385 174.7393
" />
<path d="M162.8325 117.5893
L162.8325 103.5883
" />
<path d="M86.9205 141.6893
L86.9205 155.6893
" />
<path d="M77.9885 161.2893
L77.9885 162.2093
" />
<path d="M4.7025 92.2805
L4.3125 92.2345
" />
<path d="M176.2635 165.4393
L136.6385 165.4393
" />
<path d="M232.1765 127.1143
L236.8765 127.1143
" />
<path d="M148.8325 117.5893
L162.8325 117.5893
" />
<path d="M201.2205 155.6893
L215.2205 155.6893
" />
<path d="M2.9255 93.6083
L3.2815 93.4443
" />
<path d="M1.3925 94.8163
L1.6595 94.5283
" />
<path d="M255.5285 0.3395
L255.8965 0.4755
" />
<path d="M245.6265 106.5633
L244.7065 106.5633
" />
<path d="M122.6385 165.4393
L83.0135 165.4393
" />
<path d="M34.5325 103.5883
L34.5325 117.5893
" />
<path d="M1.9475 94.2613
L2.2565 94.0183
" />
<path d="M83.0135 174.5093
L83.0135 170.0393
" />
<path d="M205.6955 160.7393
L191.6955 160.7393
" />
<path d="M255.6285 93.3083
L255.9965 93.4443
" />
<path d="M72.3455 122.6383
L58.3455 122.6383
" />
<path d="M177.1205 141.6893
L163.1205 141.6893
" />
<path d="M81.8705 141.6893
L67.8705 141.6893
" />
<path d="M255.1505 0.2335
L255.5285 0.3395
" />
<path d="M10.7195 103.5883
L10.7195 117.5893
" />
<path d="M76.2635 162.2093
L76.2635 165.4393
" />
<path d="M181.8825 103.5883
L167.8825 103.5883
" />
<path d="M254.4745 93.0793
L254.8655 93.1253
" />
<path d="M110.4455 136.6383
L110.4455 122.6383
" />
<path d="M81.8705 141.6893
L67.8705 141.6893
" />
<path d="M0.3335 181.4323
L0.2565 181.0473
" />
<path d="M158.0705 155.6893
L158.0705 141.6893
" />
<path d="M183.8385 168.2393
L183.8385 165.4393
" />
<path d="M257.6195 94.5283
L257.8855 94.8163
" />
<path d="M29.4825 122.6383
L15.4825 122.6383
" />
<path d="M1.2925 90.5435
L1.0495 90.2345
" />
<path d="M10.7195 117.5893
L24.7205 117.5893
" />
<path d="M258.5385 95.7943
L258.7025 96.1503
" />
<path d="M48.5325 174.7393
L48.5325 160.7393
" />
<path d="M115.4955 136.6383
L129.4955 136.6383
" />
<path d="M241.4765 136.2143
L241.4765 135.3883
" />
<path d="M231.4265 133.6633
L232.4065 133.6633
" />
<path d="M241.4765 104.0133
L238.6765 104.0133
" />
<path d="M122.6385 160.7393
L122.6385 165.4393
" />
<path d="M232.1765 174.7393
L246.1765 174.7393
" />
<path d="M238.6765 136.2143
L241.4765 136.2143
" />
<path d="M34.5325 117.5893
L48.5325 117.5893
" />
<path d="M48.8205 155.6893
L62.8205 155.6893
" />
<path d="M258.7025 96.1503
L258.8385 96.5183
" />
<path d="M67.8705 141.6893
L67.8705 155.6893
" />
<path d="M232.4065 128.6383
L232.4065 130.3643
" />
<path d="M0.7395 182.5343
L0.5755 182.1783
" />
<path d="M100.9205 141.6893
L86.9205 141.6893
" />
<path d="M177.1205 155.6893
L177.1205 141.6893
" />
<path d="M201.2205 141.6893
L201.2205 155.6893
" />
<path d="M5.0955 0.0945
L253.9835 0.0955
" />
<path d="M201.2205 155.6893
L215.2205 155.6893
" />
<path d="M81.2885 161.2893
L77.9885 161.2893
" />
</g>
<g style="fill:#000000; fill-opacity:0.0; 
stroke:#000000; stroke-width:0.1000; stroke-opacity:1; 
stroke-linecap:round; stroke-linejoin:round;">
<circle cx="129.6382" cy="120.1133" r="1.0000" /> 
</g>
<g style="fill:#000000; fill-opacity:0.0; 
stroke:#000000; stroke-width:0.1890; stroke-opacity:1; 
stroke-linecap:round; stroke-linejoin:round;">
<path d="M4.8025 185.2493
L4.4125 185.2033
" />
<path d="M72.3455 136.6383
L72.3455 122.6383
" />
</g>
<g style="fill:#000000; fill-opacity:0.0; 
stroke:#000000; stroke-width:0.1000; stroke-opacity:1; 
stroke-linecap:round; stroke-linejoin:round;">
<circle cx="254.6978" cy="88.0102" r="1.0000" /> 
</g>
<g style="fill:#000000; fill-opacity:0.0; 
stroke:#000000; stroke-width:0.1890; stroke-opacity:1; 
stroke-linecap:round; stroke-linejoin:round;">
<path d="M241.4765 104.0133
L238.6765 104.0133
" />
<path d="M77.3955 136.6383
L91.3955 136.6383
" />
<path d="M183.8385 165.4393
L183.0135 165.4393
" />
<path d="M0.4395 181.8103
L0.3335 181.4323
" />
<path d="M246.1765 174.7393
L246.1765 160.7393
" />
<path d="M1.1495 183.2033
L0.9315 182.8773
" />
<path d="M124.7325 103.5883
L110.7325 103.5883
" />
<path d="M77.3955 136.6383
L91.3955 136.6383
" />
<path d="M1.5595 90.8315
L1.2925 90.5435
" />
<path d="M256.6955 184.5283
L256.3535 184.7203
" />
<path d="M86.6325 103.5883
L72.6325 103.5883
" />
<path d="M232.4065 135.3883
L238.6765 135.3883
" />
<path d="M2.5825 93.8003
L2.9255 93.6083
" />
<path d="M3.9275 0.2335
L4.3125 0.1565
" />
<path d="M227.4135 141.6893
L227.4135 155.6893
" />
<path d="M15.4825 136.6383
L29.4825 136.6383
" />
<path d="M136.6385 165.4393
L136.6385 160.7393
" />
<path d="M27.1015 174.7393
L27.1015 160.7393
" />
</g>
<g style="fill:#000000; fill-opacity:0.0; 
stroke:#000000; stroke-width:0.1000; stroke-opacity:1; 
stroke-linecap:round; stroke-linejoin:round;">
<circle cx="254.6978" cy="4.6664" r="1.0000" /> 
</g>
<g style="fill:#000000; fill-opacity:0.0; 
stroke:#000000; stroke-width:0.1890; stroke-opacity:1; 
stroke-linecap:round; stroke-linejoin:round;">
<path d="M244.7065 104.8393
L241.4765 104.8393
" />
<path d="M67.5825 174.7393
L67.5825 160.7393
" />
<path d="M258.8385 96.5183
L258.9455 96.8963
" />
<path d="M167.5955 122.6383
L153.5955 122.6383
" />
<path d="M4.4125 185.2033
L4.0275 185.1263
" />
<path d="M232.4065 133.6633
L232.4065 135.3883
" />
<path d="M1.9475 184.0673
L1.6595 183.8003
" />
<path d="M244.7065 130.3643
L244.7065 128.6383
" />
<path d="M1.6595 94.5283
L1.9475 94.2613
" />
<path d="M205.9825 117.5893
L219.9825 117.5893
" />
<path d="M125.0195 141.6893
L125.0195 155.6893
" />
<path d="M256.6955 93.8003
L257.0225 94.0183
" />
<path d="M0.3335 96.8963
L0.4395 96.5183
" />
<path d="M153.5955 122.6383
L153.5955 136.6383
" />
<path d="M181.8825 103.5883
L167.8825 103.5883
" />
<path d="M246.1765 160.7393
L232.1765 160.7393
" />
<path d="M122.6385 174.7393
L136.6385 174.7393
" />
<path d="M110.4455 136.6383
L110.4455 122.6383
" />
<path d="M182.1705 155.6893
L196.1705 155.6893
" />
<path d="M258.8385 181.8103
L258.7025 182.1783
" />
<path d="M258.4385 89.5655
L258.2465 89.9085
" />
<path d="M186.6455 122.6383
L172.6455 122.6383
" />
<path d="M48.5325 103.5883
L34.5325 103.5883
" />
<path d="M182.1705 155.6893
L196.1705 155.6893
" />
<path d="M186.6455 136.6383
L186.6455 122.6383
" />
<path d="M254.8655 185.2033
L254.4745 185.2493
" />
<path d="M231.4265 109.8633
L232.4065 109.8633
" />
<path d="M191.6955 160.7393
L191.6955 174.7393
" />
<path d="M0.8315 89.9085
L0.6395 89.5655
" />
<path d="M67.5825 160.7393
L53.5825 160.7393
" />
<path d="M2.5825 184.5283
L2.2565 184.3103
" />
<path d="M29.4825 136.6383
L29.4825 122.6383
" />
<path d="M227.4135 155.6893
L241.4135 155.6893
" />
<path d="M224.7455 174.7393
L224.7455 160.7393
" />
<path d="M0.2105 180.6573
L0.1945 180.2643
" />
<path d="M81.2885 162.2093
L81.2885 161.2893
" />
<path d="M1.8475 91.0985
L1.5595 90.8315
" />
<path d="M224.7455 136.6383
L224.7455 122.6383
" />
<path d="M244.7065 128.6383
L241.4765 128.6383
" />
<path d="M10.7195 155.6893
L24.7205 155.6893
" />
<path d="M53.5825 160.7393
L53.5825 174.7393
" />
<path d="M232.1765 174.7393
L246.1765 174.7393
" />
<path d="M53.5825 174.7393
L67.5825 174.7393
" />
<path d="M0.6395 89.5655
L0.4755 89.2095
" />
<path d="M115.4955 122.6383
L115.4955 136.6383
" />
<path d="M256.5955 0.8315
L256.9225 1.0495
" />
<path d="M254.7655 92.2345
L254.3755 92.2805
" />
<path d="M183.0135 168.2393
L183.8385 168.2393
" />
<path d="M255.5285 92.0515
L255.1505 92.1575
" />
<path d="M186.9325 117.5893
L200.9325 117.5893
" />
<path d="M257.3305 184.0673
L257.0225 184.3103
" />
<path d="M67.5825 117.5893
L67.5825 103.5883
" />
<path d="M0.1105 87.6885
L0.0945 87.2955
" />
<path d="M241.4765 111.5893
L244.7065 111.5893
" />
<path d="M77.9885 174.5093
L77.9885 175.4893
" />
<path d="M4.8025 185.2493
L4.4125 185.2033
" />
<path d="M1.1495 95.1253
L1.3925 94.8163
" />
<path d="M232.4065 109.8633
L232.4065 111.5893
" />
<path d="M0.9315 182.8773
L0.7395 182.5343
" />
<path d="M258.5385 182.5343
L258.3465 182.8773
" />
<path d="M167.8825 117.5893
L181.8825 117.5893
" />
<path d="M124.7325 117.5893
L124.7325 103.5883
" />
<path d="M129.4955 136.6383
L129.4955 122.6383
" />
<path d="M4.3125 0.1565
L4.7025 0.1105
" />
<path d="M39.2955 122.6383
L39.2955 136.6383
" />
<path d="M232.4065 130.3643
L231.4265 130.3643
" />
<path d="M75.4385 165.4393
L75.4385 168.2393
" />
<path d="M246.1765 113.1133
L241.4765 113.1133
" />
<path d="M181.2885 161.2893
L177.9885 161.2893
" />
<path d="M241.4135 141.6893
L227.4135 141.6893
" />
<path d="M76.2635 165.4393
L75.4385 165.4393
" />
<path d="M258.3465 95.4513
L258.5385 95.7943
" />
<path d="M48.8205 141.6893
L48.8205 155.6893
" />
<path d="M183.0135 174.5093
L183.0135 168.2393
" />
<path d="M241.4765 135.3883
L244.7065 135.3883
" />
<path d="M4.4125 185.2033
L4.0275 185.1263
" />
<path d="M4.8025 93.0793
L5.1955 93.0633
" />
<path d="M257.3305 94.2613
L257.6195 94.5283
" />
<path d="M181.8825 117.5893
L181.8825 103.5883
" />
<path d="M105.6825 117.5893
L105.6825 103.5883
" />
<path d="M232.4065 130.3643
L231.4265 130.3643
" />
<path d="M255.2505 185.1263
L254.8655 185.2033
" />
<path d="M257.0225 184.3103
L256.6955 184.5283
" />
<path d="M256.5955 91.5595
L256.2535 91.7515
" />
<path d="M245.6265 109.8633
L245.6265 106.5633
" />
<path d="M210.7455 136.6383
L224.7455 136.6383
" />
<path d="M244.7065 130.3643
L244.7065 128.6383
" />
<path d="M39.2955 136.6383
L53.2955 136.6383
" />
<path d="M205.6955 122.6383
L191.6955 122.6383
" />
<path d="M232.1765 160.7393
L232.1765 174.7393
" />
<path d="M238.6765 104.8393
L232.4065 104.8393
" />
<path d="M43.7705 141.6893
L29.7705 141.6893
" />
<path d="M0.1945 180.2643
L0.1955 98.0643
" />
<path d="M143.7825 117.5893
L143.7825 103.5883
" />
<path d="M96.4455 136.6383
L110.4455 136.6383
" />
<path d="M1.3925 183.5123
L1.1495 183.2033
" />
<path d="M191.6955 174.7393
L205.6955 174.7393
" />
<path d="M53.2955 122.6383
L39.2955 122.6383
" />
</g>
<g style="fill:#000000; fill-opacity:0.0; 
stroke:#000000; stroke-width:0.1000; stroke-opacity:1; 
stroke-linecap:round; stroke-linejoin:round;">
<circle cx="129.6382" cy="158.2133" r="1.0000" /> 
</g>
<g style="fill:#000000; fill-opacity:0.0; 
stroke:#000000; stroke-width:0.1890; stroke-opacity:1; 
stroke-linecap:round; stroke-linejoin:round;">
<path d="M2.2565 94.0183
L2.5825 93.8003
" />
<path d="M81.2885 174.5093
L83.0135 174.5093
" />
<path d="M256.2535 91.7515
L255.8965 91.9155
" />
<path d="M1.6595 94.5283
L1.9475 94.2613
" />
<path d="M162.8325 103.5883
L148.8325 103.5883
" />
<path d="M0.5755 182.1783
L0.4395 181.8103
" />
<path d="M67.5825 103.5883
L53.5825 103.5883
" />
<path d="M76.2635 168.2393
L76.2635 174.5093
" />
<path d="M148.5455 122.6383
L134.5455 122.6383
" />
<path d="M77.9885 162.2093
L76.2635 162.2093
" />
<path d="M77.9885 174.5093
L77.9885 175.4893
" />
<path d="M236.8765 128.6383
L232.4065 128.6383
" />
<path d="M183.0135 165.4393
L183.0135 162.2093
" />
<path d="M2.5825 93.8003
L2.9255 93.6083
" />
<path d="M24.7205 103.5883
L10.7195 103.5883
" />
<path d="M24.7205 155.6893
L24.7205 141.6893
" />
<path d="M67.8705 141.6893
L67.8705 155.6893
" />
<path d="M53.5825 160.7393
L53.5825 174.7393
" />
<path d="M258.7025 182.1783
L258.5385 182.5343
" />
<path d="M258.7385 3.5495
L258.8455 3.9275
" />
<path d="M125.0195 155.6893
L139.0205 155.6893
" />
<path d="M91.6825 117.5893
L105.6825 117.5893
" />
<path d="M3.6495 93.3083
L4.0275 93.2023
" />
<path d="M232.4065 106.5633
L231.4265 106.5633
" />
<path d="M134.5455 136.6383
L148.5455 136.6383
" />
<path d="M139.0205 155.6893
L139.0205 141.6893
" />
<path d="M129.4955 136.6383
L129.4955 122.6383
" />
<path d="M257.8855 94.8163
L258.1285 95.1253
" />
<path d="M172.6455 122.6383
L172.6455 136.6383
" />
<path d="M75.4385 165.4393
L75.4385 168.2393
" />
<path d="M29.7705 155.6893
L43.7705 155.6893
" />
<path d="M241.4765 113.1133
L241.4765 111.5893
" />
<path d="M148.8325 103.5883
L148.8325 117.5893
" />
<path d="M153.5955 136.6383
L167.5955 136.6383
" />
<path d="M1.8475 1.2925
L2.1565 1.0495
" />
<path d="M177.1205 155.6893
L177.1205 141.6893
" />
<path d="M24.7205 117.5893
L24.7205 103.5883
" />
<path d="M67.8705 155.6893
L81.8705 155.6893
" />
<path d="M2.4825 0.8315
L2.8255 0.6395
" />
<path d="M75.4385 168.2393
L76.2635 168.2393
" />
<path d="M129.7825 117.5893
L143.7825 117.5893
" />
<path d="M191.6955 122.6383
L191.6955 136.6383
" />
<path d="M110.7325 117.5893
L124.7325 117.5893
" />
<path d="M67.5825 103.5883
L53.5825 103.5883
" />
<path d="M0.7395 95.7943
L0.9315 95.4513
" />
<path d="M48.8205 155.6893
L62.8205 155.6893
" />
<path d="M176.2635 162.2093
L176.2635 165.4393
" />
<path d="M134.5455 122.6383
L134.5455 136.6383
" />
<path d="M72.6325 117.5893
L86.6325 117.5893
" />
<path d="M257.3305 184.0673
L257.0225 184.3103
" />
<path d="M81.8705 155.6893
L81.8705 141.6893
" />
<path d="M91.6825 103.5883
L91.6825 117.5893
" />
<path d="M183.0135 165.4393
L183.0135 162.2093
" />
<path d="M144.0705 141.6893
L144.0705 155.6893
" />
<path d="M191.6955 136.6383
L205.6955 136.6383
" />
<path d="M13.1015 160.7393
L13.1015 174.7393
" />
<path d="M144.0705 141.6893
L144.0705 155.6893
" />
<path d="M200.9325 103.5883
L186.9325 103.5883
" />
<path d="M224.7455 160.7393
L210.7455 160.7393
" />
<path d="M122.6385 165.4393
L83.0135 165.4393
" />
<path d="M3.6495 185.0203
L3.2815 184.8843
" />
<path d="M96.4455 136.6383
L110.4455 136.6383
" />
<path d="M196.1705 155.6893
L196.1705 141.6893
" />
<path d="M96.4455 122.6383
L96.4455 136.6383
" />
<path d="M86.9205 141.6893
L86.9205 155.6893
" />
<path d="M259.0685 180.6573
L259.0215 181.0473
" />
</g>
<g style="fill:#000000; fill-opacity:0.0; 
stroke:#000000; stroke-width:0.1000; stroke-opacity:1; 
stroke-linecap:round; stroke-linejoin:round;">
<circle cx="129.6821" cy="4.6664" r="1.0000" /> 
</g>
<g style="fill:#000000; fill-opacity:0.0; 
stroke:#000000; stroke-width:0.1890; stroke-opacity:1; 
stroke-linecap:round; stroke-linejoin:round;">
<path d="M4.7025 0.1105
L5.0955 0.0945
" />
<path d="M182.1705 141.6893
L182.1705 155.6893
" />
<path d="M257.5195 1.5595
L257.7855 1.8475
" />
<path d="M115.4955 122.6383
L115.4955 136.6383
" />
<path d="M0.1565 4.3125
L0.2335 3.9275
" />
<path d="M210.7455 160.7393
L210.7455 174.7393
" />
<path d="M257.8855 183.5123
L257.6195 183.8003
" />
<path d="M148.8325 103.5883
L148.8325 117.5893
" />
<path d="M183.0135 174.5093
L183.0135 168.2393
" />
<path d="M258.6025 89.2095
L258.4385 89.5655
" />
<path d="M81.8705 155.6893
L81.8705 141.6893
" />
<path d="M115.4955 136.6383
L129.4955 136.6383
" />
<path d="M205.6955 174.7393
L205.6955 160.7393
" />
<path d="M0.1955 98.0643
L0.2105 97.6713
" />
<path d="M255.9965 93.4443
L256.3535 93.6083
" />
<path d="M91.3955 136.6383
L91.3955 122.6383
" />
<path d="M257.6195 94.5283
L257.8855 94.8163
" />
<path d="M91.6825 103.5883
L91.6825 117.5893
" />
<path d="M238.6765 104.0133
L238.6765 104.8393
" />
<path d="M76.2635 168.2393
L76.2635 174.5093
" />
<path d="M259.0685 97.6713
L259.0835 98.0643
" />
<path d="M62.8205 141.6893
L48.8205 141.6893
" />
<path d="M241.4765 104.8393
L241.4765 104.0133
" />
<path d="M186.9325 103.5883
L186.9325 117.5893
" />
<path d="M1.9475 94.2613
L2.2565 94.0183
" />
<path d="M255.9965 184.8843
L255.6285 185.0203
" />
<path d="M13.1015 160.7393
L13.1015 174.7393
" />
</g>
<g style="fill:#000000; fill-opacity:0.0; 
stroke:#000000; stroke-width:0.1000; stroke-opacity:1; 
stroke-linecap:round; stroke-linejoin:round;">
<circle cx="46.2944" cy="120.1133" r="1.0000" /> 
</g>
<g style="fill:#000000; fill-opacity:0.0; 
stroke:#000000; stroke-width:0.1890; stroke-opacity:1; 
stroke-linecap:round; stroke-linejoin:round;">
<path d="M256.3535 184.7203
L255.9965 184.8843
" />
<path d="M205.9825 103.5883
L205.9825 117.5893
" />
<path d="M255.2505 93.2023
L255.6285 93.3083
" />
<path d="M0.4395 96.5183
L0.5755 96.1503
" />
<path d="M83.0135 165.4393
L83.0135 162.2093
" />
<path d="M205.6955 122.6383
L191.6955 122.6383
" />
<path d="M62.8205 141.6893
L48.8205 141.6893
" />
<path d="M205.6955 174.7393
L205.6955 160.7393
" />
<path d="M236.8765 113.1133
L232.1765 113.1133
" />
<path d="M158.0705 141.6893
L144.0705 141.6893
" />
<path d="M255.2505 185.1263
L254.8655 185.2033
" />
<path d="M256.2535 0.6395
L256.5955 0.8315
" />
<path d="M191.6955 174.7393
L205.6955 174.7393
" />
<path d="M254.3755 0.1105
L254.7655 0.1565
" />
<path d="M177.9885 174.5093
L177.9885 175.4893
" />
<path d="M256.3535 93.6083
L256.6955 93.8003
" />
<path d="M0.5755 182.1783
L0.4395 181.8103
" />
<path d="M167.8825 103.5883
L167.8825 117.5893
" />
<path d="M258.9685 4.7025
L258.9835 5.0955
" />
<path d="M258.9215 4.3125
L258.9685 4.7025
" />
<path d="M27.1015 174.7393
L27.1015 160.7393
" />
<path d="M162.8325 117.5893
L162.8325 103.5883
" />
</g>
<g style="fill:#000000; fill-opacity:0.0; 
stroke:#000000; stroke-width:0.1000; stroke-opacity:1; 
stroke-linecap:round; stroke-linejoin:round;">
<circle cx="129.6821" cy="88.0102" r="1.0000" /> 
</g>
<g style="fill:#000000; fill-opacity:0.0; 
stroke:#000000; stroke-width:0.1890; stroke-opacity:1; 
stroke-linecap:round; stroke-linejoin:round;">
<path d="M177.9885 161.2893
L177.9885 162.2093
" />
<path d="M3.6495 185.0203
L3.2815 184.8843
" />
<path d="M3.9275 92.1575
L3.5495 92.0515
" />
<path d="M136.6385 160.7393
L122.6385 160.7393
" />
<path d="M255.8965 91.9155
L255.5285 92.0515
" />
<path d="M231.4265 106.5633
L231.4265 109.8633
" />
<path d="M110.7325 117.5893
L124.7325 117.5893
" />
<path d="M2.1565 91.3415
L1.8475 91.0985
" />
<path d="M232.4065 111.5893
L236.8765 111.5893
" />
<path d="M10.7195 155.6893
L24.7205 155.6893
" />
<path d="M91.3955 122.6383
L77.3955 122.6383
" />
<path d="M0.5755 96.1503
L0.7395 95.7943
" />
<path d="M177.9885 161.2893
L177.9885 162.2093
" />
<path d="M62.8205 155.6893
L62.8205 141.6893
" />
<path d="M1.0495 2.1565
L1.2925 1.8475
" />
<path d="M0.2565 97.2813
L0.3335 96.8963
" />
<path d="M53.5825 103.5883
L53.5825 117.5893
" />
<path d="M53.5825 117.5893
L67.5825 117.5893
" />
<path d="M153.5955 122.6383
L153.5955 136.6383
" />
<path d="M183.8385 168.2393
L183.8385 165.4393
" />
<path d="M4.0275 185.1263
L3.6495 185.0203
" />
<path d="M245.6265 130.3643
L244.7065 130.3643
" />
<path d="M256.6955 93.8003
L257.0225 94.0183
" />
<path d="M2.2565 94.0183
L2.5825 93.8003
" />
<path d="M129.4955 122.6383
L115.4955 122.6383
" />
<path d="M205.6955 136.6383
L205.6955 122.6383
" />
<path d="M205.9825 117.5893
L219.9825 117.5893
" />
<path d="M191.6955 122.6383
L191.6955 136.6383
" />
<path d="M86.6325 103.5883
L72.6325 103.5883
" />
<path d="M29.7705 141.6893
L29.7705 155.6893
" />
<path d="M34.5325 174.7393
L48.5325 174.7393
" />
<path d="M167.5955 122.6383
L153.5955 122.6383
" />
<path d="M210.7455 174.7393
L224.7455 174.7393
" />
<path d="M1.2925 1.8475
L1.5595 1.5595
" />
<path d="M258.8385 181.8103
L258.7025 182.1783
" />
<path d="M227.4135 141.6893
L227.4135 155.6893
" />
<path d="M2.9255 184.7203
L2.5825 184.5283
" />
<path d="M122.6385 160.7393
L122.6385 165.4393
" />
<path d="M67.5825 174.7393
L67.5825 160.7393
" />
<path d="M241.4135 155.6893
L241.4135 141.6893
" />
<path d="M58.3455 136.6383
L72.3455 136.6383
" />
<path d="M27.1015 160.7393
L13.1015 160.7393
" />
<path d="M177.9885 175.4893
L181.2885 175.4893
" />
<path d="M256.9225 91.3415
L256.5955 91.5595
" />
</g>
<g style="fill:#000000; fill-opacity:0.0; 
stroke:#000000; stroke-width:0.1000; stroke-opacity:1; 
stroke-linecap:round; stroke-linejoin:round;">
<circle cx="217.7445" cy="158.2133" r="1.0000" /> 
</g>
<g style="fill:#000000; fill-opacity:0.0; 
stroke:#000000; stroke-width:0.1890; stroke-opacity:1; 
stroke-linecap:round; stroke-linejoin:round;">
<path d="M255.9965 93.4443
L256.3535 93.6083
" />
<path d="M245.6265 133.6633
L245.6265 130.3643
" />
<path d="M231.4265 130.3643
L231.4265 133.6633
" />
<path d="M86.9205 155.6893
L100.9205 155.6893
" />
<path d="M0.2105 97.6713
L0.2565 97.2813
" />
<path d="M110.7325 103.5883
L110.7325 117.5893
" />
</g>
<g style="fill:#000000; fill-opacity:0.0; 
stroke:#000000; stroke-width:0.1000; stroke-opacity:1; 
stroke-linecap:round; stroke-linejoin:round;">
<circle cx="254.6978" cy="180.8790" r="1.0000" /> 
</g>
<g style="fill:#000000; fill-opacity:0.0; 
stroke:#000000; stroke-width:0.1890; stroke-opacity:1; 
stroke-linecap:round; stroke-linejoin:round;">
<path d="M232.1765 113.1133
L232.1765 127.1143
" />
<path d="M238.6765 135.3883
L238.6765 136.2143
" />
<path d="M186.9325 103.5883
L186.9325 117.5893
" />
<path d="M241.4765 136.2143
L241.4765 135.3883
" />
<path d="M29.4825 122.6383
L15.4825 122.6383
" />
<path d="M244.7065 111.5893
L244.7065 109.8633
" />
<path d="M177.9885 162.2093
L176.2635 162.2093
" />
<path d="M176.2635 162.2093
L176.2635 165.4393
" />
<path d="M257.2305 91.0985
L256.9225 91.3415
" />
<path d="M258.5385 95.7943
L258.7025 96.1503
" />
<path d="M167.8825 117.5893
L181.8825 117.5893
" />
<path d="M256.3535 184.7203
L255.9965 184.8843
" />
<path d="M119.9695 155.6893
L119.9695 141.6893
" />
<path d="M255.6285 185.0203
L255.2505 185.1263
" />
<path d="M91.3955 136.6383
L91.3955 122.6383
" />
<path d="M100.9205 155.6893
L100.9205 141.6893
" />
<path d="M236.8765 111.5893
L236.8765 113.1133
" />
<path d="M1.5595 1.5595
L1.8475 1.2925
" />
<path d="M53.2955 136.6383
L53.2955 122.6383
" />
<path d="M244.7065 109.8633
L245.6265 109.8633
" />
<path d="M181.2885 174.5093
L183.0135 174.5093
" />
<path d="M200.9325 117.5893
L200.9325 103.5883
" />
<path d="M258.4385 2.8255
L258.6025 3.1815
" />
<path d="M139.0205 141.6893
L125.0195 141.6893
" />
<path d="M1.1495 183.2033
L0.9315 182.8773
" />
<path d="M255.8965 0.4755
L256.2535 0.6395
" />
<path d="M53.2955 136.6383
L53.2955 122.6383
" />
<path d="M15.4825 122.6383
L15.4825 136.6383
" />
<path d="M181.2885 161.2893
L177.9885 161.2893
" />
<path d="M4.0275 185.1263
L3.6495 185.0203
" />
<path d="M244.7065 106.5633
L244.7065 104.8393
" />
<path d="M245.6265 106.5633
L244.7065 106.5633
" />
<path d="M3.5495 0.3395
L3.9275 0.2335
" />
<path d="M219.9825 117.5893
L219.9825 103.5883
" />
<path d="M0.3335 96.8963
L0.4395 96.5183
" />
<path d="M0.1565 88.0785
L0.1105 87.6885
" />
<path d="M258.9835 5.0955
L258.9835 87.2965
" />
<path d="M246.1765 174.7393
L246.1765 160.7393
" />
<path d="M110.7325 103.5883
L110.7325 117.5893
" />
<path d="M0.3395 88.8415
L0.2335 88.4635
" />
<path d="M62.8205 155.6893
L62.8205 141.6893
" />
<path d="M215.2205 155.6893
L215.2205 141.6893
" />
<path d="M24.7205 141.6893
L10.7195 141.6893
" />
<path d="M48.8205 141.6893
L48.8205 155.6893
" />
<path d="M254.3755 92.2805
L253.9835 92.2965
" />
<path d="M205.9825 103.5883
L205.9825 117.5893
" />
<path d="M258.5385 182.5343
L258.3465 182.8773
" />
<path d="M258.9685 87.6885
L258.9215 88.0785
" />
<path d="M43.7705 155.6893
L43.7705 141.6893
" />
<path d="M83.0135 165.4393
L83.0135 162.2093
" />
<path d="M0.9315 182.8773
L0.7395 182.5343
" />
<path d="M254.0825 93.0643
L254.4745 93.0793
" />
<path d="M83.0135 170.0393
L122.6385 170.0393
" />
<path d="M176.2635 165.4393
L136.6385 165.4393
" />
<path d="M0.9315 95.4513
L1.1495 95.1253
" />
<path d="M257.2305 1.2925
L257.5195 1.5595
" />
<path d="M136.6385 170.0393
L176.2635 170.0393
" />
<path d="M136.6385 170.0393
L176.2635 170.0393
" />
<path d="M258.9455 96.8963
L259.0215 97.2813
" />
<path d="M236.8765 111.5893
L236.8765 113.1133
" />
<path d="M136.6385 160.7393
L122.6385 160.7393
" />
<path d="M0.6395 2.8255
L0.8315 2.4825
" />
<path d="M257.0225 94.0183
L257.3305 94.2613
" />
<path d="M0.2105 180.6573
L0.1945 180.2643
" />
<path d="M236.8765 127.1143
L236.8765 128.6383
" />
<path d="M258.6025 3.1815
L258.7385 3.5495
" />
<path d="M2.8255 0.6395
L3.1815 0.4755
" />
<path d="M81.2885 175.4893
L81.2885 174.5093
" />
<path d="M100.9205 141.6893
L86.9205 141.6893
" />
<path d="M191.6955 136.6383
L205.6955 136.6383
" />
<path d="M0.4755 3.1815
L0.6395 2.8255
" />
<path d="M53.2955 122.6383
L39.2955 122.6383
" />
<path d="M257.3305 94.2613
L257.6195 94.5283
" />
<path d="M34.5325 160.7393
L34.5325 174.7393
" />
<path d="M83.0135 174.5093
L83.0135 170.0393
" />
<path d="M256.9225 1.0495
L257.2305 1.2925
" />
<path d="M148.5455 122.6383
L134.5455 122.6383
" />
<path d="M238.6765 104.8393
L232.4065 104.8393
" />
<path d="M148.5455 136.6383
L148.5455 122.6383
" />
<path d="M119.9695 141.6893
L105.9695 141.6893
" />
</g>
<g style="fill:#000000; fill-opacity:0.0; 
stroke:#000000; stroke-width:0.1000; stroke-opacity:1; 
stroke-linecap:round; stroke-linejoin:round;">
<circle cx="4.6664" cy="180.8790" r="1.0000" /> 
</g>
<g style="fill:#000000; fill-opacity:0.0; 
stroke:#000000; stroke-width:0.1890; stroke-opacity:1; 
stroke-linecap:round; stroke-linejoin:round;">
<path d="M2.9255 184.7203
L2.5825 184.5283
" />
<path d="M81.2885 161.2893
L77.9885 161.2893
" />
<path d="M232.4065 128.6383
L232.4065 130.3643
" />
<path d="M77.9885 175.4893
L81.2885 175.4893
" />
<path d="M136.6385 174.7393
L136.6385 170.0393
" />
<path d="M210.7455 122.6383
L210.7455 136.6383
" />
<path d="M172.6455 136.6383
L186.6455 136.6383
" />
<path d="M232.4065 109.8633
L232.4065 111.5893
" />
<path d="M258.3465 95.4513
L258.5385 95.7943
" />
<path d="M4.4125 93.1253
L4.8025 93.0793
" />
<path d="M119.9695 155.6893
L119.9695 141.6893
" />
<path d="M172.6455 136.6383
L186.6455 136.6383
" />
<path d="M231.4265 130.3643
L231.4265 133.6633
" />
<path d="M172.6455 122.6383
L172.6455 136.6383
" />
<path d="M254.8655 93.1253
L255.2505 93.2023
" />
<path d="M232.4065 106.5633
L231.4265 106.5633
" />
<path d="M77.3955 122.6383
L77.3955 136.6383
" />
<path d="M244.7065 133.6633
L245.6265 133.6633
" />
<path d="M191.6955 160.7393
L191.6955 174.7393
" />
<path d="M34.5325 160.7393
L34.5325 174.7393
" />
<path d="M254.8655 93.1253
L255.2505 93.2023
" />
<path d="M129.7825 103.5883
L129.7825 117.5893
" />
<path d="M0.8315 2.4825
L1.0495 2.1565
" />
<path d="M0.4395 96.5183
L0.5755 96.1503
" />
<path d="M254.0825 185.2653
L5.1955 185.2653
" />
<path d="M0.7395 182.5343
L0.5755 182.1783
" />
<path d="M0.3335 181.4323
L0.2565 181.0473
" />
<path d="M0.9315 95.4513
L1.1495 95.1253
" />
<path d="M13.1015 174.7393
L27.1015 174.7393
" />
<path d="M258.8385 96.5183
L258.9455 96.8963
" />
<path d="M100.9205 155.6893
L100.9205 141.6893
" />
<path d="M76.2635 162.2093
L76.2635 165.4393
" />
<path d="M177.9885 175.4893
L181.2885 175.4893
" />
<path d="M245.6265 109.8633
L245.6265 106.5633
" />
<path d="M258.3465 182.8773
L258.1285 183.2033
" />
<path d="M72.6325 103.5883
L72.6325 117.5893
" />
<path d="M257.7855 90.5435
L257.5195 90.8315
" />
<path d="M246.1765 127.1143
L246.1765 113.1133
" />
</g>
<g style="fill:#000000; fill-opacity:0.0; 
stroke:#000000; stroke-width:0.1000; stroke-opacity:1; 
stroke-linecap:round; stroke-linejoin:round;">
<circle cx="129.6821" cy="97.5352" r="1.0000" /> 
</g>
<g style="fill:#000000; fill-opacity:0.0; 
stroke:#000000; stroke-width:0.1890; stroke-opacity:1; 
stroke-linecap:round; stroke-linejoin:round;">
<path d="M224.7455 136.6383
L224.7455 122.6383
" />
<path d="M122.6385 170.0393
L122.6385 174.7393
" />
<path d="M3.2815 184.8843
L2.9255 184.7203
" />
<path d="M10.7195 141.6893
L10.7195 155.6893
" />
<path d="M34.5325 117.5893
L48.5325 117.5893
" />
<path d="M258.9215 88.0785
L258.8455 88.4635
" />
<path d="M219.9825 117.5893
L219.9825 103.5883
" />
<path d="M257.6195 183.8003
L257.3305 184.0673
" />
<path d="M29.7705 141.6893
L29.7705 155.6893
" />
<path d="M244.7065 106.5633
L244.7065 104.8393
" />
<path d="M258.9455 96.8963
L259.0215 97.2813
" />
<path d="M246.1765 113.1133
L241.4765 113.1133
" />
<path d="M29.4825 136.6383
L29.4825 122.6383
" />
<path d="M246.1765 160.7393
L232.1765 160.7393
" />
<path d="M143.7825 103.5883
L129.7825 103.5883
" />
<path d="M139.0205 141.6893
L125.0195 141.6893
" />
<path d="M186.9325 117.5893
L200.9325 117.5893
" />
<path d="M2.5825 184.5283
L2.2565 184.3103
" />
<path d="M258.9835 87.2965
L258.9685 87.6885
" />
<path d="M259.0685 180.6573
L259.0215 181.0473
" />
<path d="M3.1815 91.9155
L2.8255 91.7515
" />
<path d="M1.9475 184.0673
L1.6595 183.8003
" />
<path d="M125.0195 141.6893
L125.0195 155.6893
" />
<path d="M163.1205 141.6893
L163.1205 155.6893
" />
</g>
<g style="fill:#000000; fill-opacity:0.0; 
stroke:#000000; stroke-width:0.1000; stroke-opacity:1; 
stroke-linecap:round; stroke-linejoin:round;">
<circle cx="46.2944" cy="158.2133" r="1.0000" /> 
</g>
<g style="fill:#000000; fill-opacity:0.0; 
stroke:#000000; stroke-width:0.1890; stroke-opacity:1; 
stroke-linecap:round; stroke-linejoin:round;">
<path d="M29.7705 155.6893
L43.7705 155.6893
" />
<path d="M124.7325 117.5893
L124.7325 103.5883
" />
<path d="M81.2885 175.4893
L81.2885 174.5093
" />
<path d="M5.1955 93.0633
L254.0825 93.0643
" />
<path d="M254.7655 0.1565
L255.1505 0.2335
" />
<path d="M258.0285 90.2345
L257.7855 90.5435
" />
<path d="M167.5955 136.6383
L167.5955 122.6383
" />
<path d="M201.2205 141.6893
L201.2205 155.6893
" />
<path d="M125.0195 155.6893
L139.0205 155.6893
" />
<path d="M48.5325 174.7393
L48.5325 160.7393
" />
<path d="M15.4825 122.6383
L15.4825 136.6383
" />
<path d="M143.7825 117.5893
L143.7825 103.5883
" />
<path d="M53.5825 103.5883
L53.5825 117.5893
" />
<path d="M258.1285 95.1253
L258.3465 95.4513
" />
<path d="M205.6955 136.6383
L205.6955 122.6383
" />
<path d="M5.1955 185.2653
L4.8025 185.2493
" />
<path d="M254.4745 185.2493
L254.0825 185.2653
" />
<path d="M257.0225 184.3103
L256.6955 184.5283
" />
<path d="M259.0835 98.0643
L259.0835 180.2653
" />
<path d="M241.4765 104.8393
L241.4765 104.0133
" />
<path d="M253.9835 92.2965
L5.0955 92.2965
" />
<path d="M254.8655 185.2033
L254.4745 185.2493
" />
<path d="M232.1765 113.1133
L232.1765 127.1143
" />
<path d="M4.0275 93.2023
L4.4125 93.1253
" />
<path d="M27.1015 160.7393
L13.1015 160.7393
" />
<path d="M241.4765 113.1133
L241.4765 111.5893
" />
<path d="M91.6825 117.5893
L105.6825 117.5893
" />
<path d="M77.9885 161.2893
L77.9885 162.2093
" />
<path d="M176.2635 170.0393
L176.2635 174.5093
" />
<path d="M241.4135 141.6893
L227.4135 141.6893
" />
<path d="M177.9885 174.5093
L177.9885 175.4893
" />
<path d="M241.4765 128.6383
L241.4765 127.1143
" />
<path d="M259.0835 180.2653
L259.0685 180.6573
" />
<path d="M110.4455 122.6383
L96.4455 122.6383
" />
<path d="M53.5825 174.7393
L67.5825 174.7393
" />
<path d="M231.4265 109.8633
L232.4065 109.8633
" />
<path d="M10.7195 141.6893
L10.7195 155.6893
" />
<path d="M257.5195 90.8315
L257.2305 91.0985
" />
<path d="M232.4065 111.5893
L236.8765 111.5893
" />
<path d="M10.7195 117.5893
L24.7205 117.5893
" />
<path d="M0.4395 181.8103
L0.3335 181.4323
" />
<path d="M258.9455 181.4323
L258.8385 181.8103
" />
<path d="M176.2635 170.0393
L176.2635 174.5093
" />
<path d="M181.8825 117.5893
L181.8825 103.5883
" />
<path d="M177.1205 141.6893
L163.1205 141.6893
" />
<path d="M24.7205 103.5883
L10.7195 103.5883
" />
<path d="M258.8455 3.9275
L258.9215 4.3125
" />
<path d="M43.7705 141.6893
L29.7705 141.6893
" />
<path d="M181.2885 162.2093
L181.2885 161.2893
" />
<path d="M241.4135 155.6893
L241.4135 141.6893
" />
<path d="M163.1205 155.6893
L177.1205 155.6893
" />
<path d="M43.7705 155.6893
L43.7705 141.6893
" />
<path d="M2.4825 91.5595
L2.1565 91.3415
" />
<path d="M3.2815 93.4443
L3.6495 93.3083
" />
<path d="M48.5325 103.5883
L34.5325 103.5883
" />
<path d="M72.6325 117.5893
L86.6325 117.5893
" />
<path d="M259.0835 98.0643
L259.0835 180.2653
" />
<path d="M183.8385 165.4393
L183.0135 165.4393
" />
<path d="M5.0955 92.2965
L4.7025 92.2805
" />
</g>
<g style="fill:#000000; fill-opacity:0.0; 
stroke:#000000; stroke-width:0.1000; stroke-opacity:1; 
stroke-linecap:round; stroke-linejoin:round;">
<circle cx="4.6664" cy="97.5352" r="1.0000" /> 
</g>
<g style="fill:#000000; fill-opacity:0.0; 
stroke:#000000; stroke-width:0.1890; stroke-opacity:1; 
stroke-linecap:round; stroke-linejoin:round;">
<path d="M86.9205 155.6893
L100.9205 155.6893
" />
<path d="M110.4455 122.6383
L96.4455 122.6383
" />
<path d="M258.7385 88.8415
L258.6025 89.2095
" />
<path d="M257.0225 94.0183
L257.3305 94.2613
" />
<path d="M24.7205 117.5893
L24.7205 103.5883
" />
<path d="M245.6265 133.6633
L245.6265 130.3643
" />
<path d="M254.4745 93.0793
L254.8655 93.1253
" />
<path d="M0.1955 98.0643
L0.2105 97.6713
" />
<path d="M4.3125 92.2345
L3.9275 92.1575
" />
<path d="M48.5325 117.5893
L48.5325 103.5883
" />
<path d="M244.7065 135.3883
L244.7065 133.6633
" />
<path d="M241.4765 127.1143
L246.1765 127.1143
" />
<path d="M255.9965 184.8843
L255.6285 185.0203
" />
<path d="M5.1955 93.0633
L254.0825 93.0643
" />
<path d="M259.0215 97.2813
L259.0685 97.6713
" />
<path d="M244.7065 128.6383
L241.4765 128.6383
" />
<path d="M3.2815 184.8843
L2.9255 184.7203
" />
<path d="M0.2565 181.0473
L0.2105 180.6573
" />
<path d="M238.6765 135.3883
L238.6765 136.2143
" />
<path d="M4.0275 93.2023
L4.4125 93.1253
" />
<path d="M259.0835 180.2653
L259.0685 180.6573
" />
<path d="M134.5455 122.6383
L134.5455 136.6383
" />
<path d="M257.6195 183.8003
L257.3305 184.0673
" />
<path d="M167.8825 103.5883
L167.8825 117.5893
" />
<path d="M257.8855 183.5123
L257.6195 183.8003
" />
<path d="M244.7065 104.8393
L241.4765 104.8393
" />
<path d="M215.2205 155.6893
L215.2205 141.6893
" />
<path d="M244.7065 109.8633
L245.6265 109.8633
" />
<path d="M238.6765 136.2143
L241.4765 136.2143
" />
<path d="M183.0135 162.2093
L181.2885 162.2093
" />
<path d="M1.3925 183.5123
L1.1495 183.2033
" />
<path d="M259.0685 97.6713
L259.0835 98.0643
" />
<path d="M219.9825 103.5883
L205.9825 103.5883
" />
<path d="M255.6285 93.3083
L255.9965 93.4443
" />
<path d="M236.8765 128.6383
L232.4065 128.6383
" />
<path d="M232.1765 160.7393
L232.1765 174.7393
" />
<path d="M105.9695 155.6893
L119.9695 155.6893
" />
<path d="M1.0495 90.2345
L0.8315 89.9085
" />
<path d="M0.4755 89.2095
L0.3395 88.8415
" />
<g >
</g>
<g >
</g>
<g >
</g>
</g> 
</svg>
